<?xml version="1.0" encoding="UTF-8" standalone="no"?>
<!-- Created with Inkscape (http://www.inkscape.org/) -->

<svg
   xmlns:dc="http://purl.org/dc/elements/1.1/"
   xmlns:cc="http://creativecommons.org/ns#"
   xmlns:rdf="http://www.w3.org/1999/02/22-rdf-syntax-ns#"
   xmlns:svg="http://www.w3.org/2000/svg"
   xmlns="http://www.w3.org/2000/svg"
   xmlns:sodipodi="http://sodipodi.sourceforge.net/DTD/sodipodi-0.dtd"
   xmlns:inkscape="http://www.inkscape.org/namespaces/inkscape"
   width="256"
   height="256"
   viewBox="0 0 67.733333 67.733335"
   version="1.1"
   id="svg8"
   sodipodi:docname="logo.svg"
   inkscape:version="0.92.5 (2060ec1f9f, 2020-04-08)">
  <defs
     id="defs2" />
  <sodipodi:namedview
     id="base"
     pagecolor="#ffffff"
     bordercolor="#666666"
     borderopacity="1.0"
     inkscape:pageopacity="0.0"
     inkscape:pageshadow="2"
     inkscape:zoom="2"
     inkscape:cx="193.2006"
     inkscape:cy="136.16001"
     inkscape:document-units="mm"
     inkscape:current-layer="g4953"
     showgrid="false"
     inkscape:snap-intersection-paths="true"
     inkscape:window-width="1920"
     inkscape:window-height="1136"
     inkscape:window-x="1920"
     inkscape:window-y="1107"
     inkscape:window-maximized="1"
     showguides="true"
     inkscape:guide-bbox="true"
     units="px" />
  <metadata
     id="metadata5">
    <rdf:RDF>
      <cc:Work
         rdf:about="">
        <dc:format>image/svg+xml</dc:format>
        <dc:type
           rdf:resource="http://purl.org/dc/dcmitype/StillImage" />
        <dc:title></dc:title>
      </cc:Work>
    </rdf:RDF>
  </metadata>
  <g
     inkscape:label="Layer 1"
     inkscape:groupmode="layer"
     id="layer1"
     transform="translate(0,-229.26663)">
    <g
       id="g4953"
       transform="rotate(31.752969,41.514295,85.847932)">
      <g
         id="g5022"
         transform="matrix(2.5418799,0,0,2.5418799,-134.42782,70.500483)"
         style="stroke-width:0.39340964">
        <path
           id="circle4927"
           d="M 115.62846,66.056549 A 12.473214,12.473214 0 0 1 103.15524,78.529763 12.473214,12.473214 0 0 1 90.682029,66.056549 12.473214,12.473214 0 0 1 103.15524,53.583335 12.473214,12.473214 0 0 1 115.62846,66.056549 Z"
           style="fill:#17b169;fill-opacity:1;stroke:none;stroke-width:1.08777761;stroke-linecap:round;stroke-miterlimit:4;stroke-dasharray:none;stroke-dashoffset:0;stroke-opacity:1"
           inkscape:connector-curvature="0" />
        <circle
           r="12.473214"
           cy="66.056549"
           cx="103.15525"
           id="circle4874"
           style="fill:#17b169;fill-opacity:1;stroke:none;stroke-width:1.0877775;stroke-linecap:round;stroke-miterlimit:4;stroke-dasharray:none;stroke-dashoffset:0;stroke-opacity:1" />
        <path
           id="path4943"
           transform="matrix(0.22498181,-0.13923909,0.13923909,0.22498181,81.688889,229.64766)"
           d="m 393.58984,-530.19336 a 47.142857,47.142857 0 0 0 -0.58007,0.0391 l 12.58203,25.17578 -15.79883,25.5293 -21.42578,-42.86719 a 47.142857,47.142857 0 0 0 -3.27735,2.38868 l 22.22852,44.47656 -15.80078,25.52929 -22.64649,-45.30664 a 47.142857,47.142857 0 0 0 -1.23828,6.46485 l 21.41016,42.83984 -1.125,1.81641 a 47.142857,47.142857 0 0 0 1.64648,1.13672 47.142857,47.142857 0 0 0 1.73438,0.99023 l 1.14062,-1.8418 47.89844,0.0508 a 47.142857,47.142857 0 0 0 5.26563,-3.99414 l -50.68946,-0.0547 15.79883,-25.5293 49.73633,0.0527 a 47.142857,47.142857 0 0 0 0.65625,-3.99804 l -47.91797,-0.0527 15.80078,-25.52929 28.13672,0.0293 a 47.142857,47.142857 0 0 0 -2.08398,-4.00195 l -23.57813,-0.0254 9.36523,-15.13281 a 47.142857,47.142857 0 0 0 -1.64648,-1.13477 47.142857,47.142857 0 0 0 -1.73437,-0.99219 l -9.38086,15.15821 -10.53907,-21.08399 a 47.142857,47.142857 0 0 0 -3.9375,-0.13281 z"
           style="color:#000000;font-style:normal;font-variant:normal;font-weight:normal;font-stretch:normal;font-size:medium;line-height:normal;font-family:sans-serif;font-variant-ligatures:normal;font-variant-position:normal;font-variant-caps:normal;font-variant-numeric:normal;font-variant-alternates:normal;font-feature-settings:normal;text-indent:0;text-align:start;text-decoration:none;text-decoration-line:none;text-decoration-style:solid;text-decoration-color:#000000;letter-spacing:normal;word-spacing:normal;text-transform:none;writing-mode:lr-tb;direction:ltr;text-orientation:mixed;dominant-baseline:auto;baseline-shift:baseline;text-anchor:start;white-space:normal;shape-padding:0;clip-rule:nonzero;display:inline;overflow:visible;visibility:visible;opacity:1;isolation:auto;mix-blend-mode:normal;color-interpolation:sRGB;color-interpolation-filters:linearRGB;solid-color:#000000;solid-opacity:1;vector-effect:none;fill:#00563b;fill-opacity:1;fill-rule:nonzero;stroke:none;stroke-width:1.57314277;stroke-linecap:square;stroke-linejoin:miter;stroke-miterlimit:4;stroke-dasharray:none;stroke-dashoffset:0;stroke-opacity:1;color-rendering:auto;image-rendering:auto;shape-rendering:auto;text-rendering:auto;enable-background:accumulate"
           inkscape:connector-curvature="0" />
        <path
           sodipodi:nodetypes="ccccc"
           inkscape:connector-curvature="0"
           id="path4949"
           d="m 101.77009,78.05729 c 1.70089,5.304231 -4.252235,2.315103 -4.252235,2.315103 l 0.04725,2.504093 c 2.456845,0.188989 6.257515,2.840506 6.992555,-4.724703 z"
           style="fill:#17b169;fill-opacity:1;stroke:none;stroke-width:0.10408963px;stroke-linecap:butt;stroke-linejoin:miter;stroke-opacity:1" />
        <path
           sodipodi:nodetypes="ccccc"
           inkscape:connector-curvature="0"
           id="path4951"
           d="m 102.6156,77.924199 1.06679,-0.01644 c 0.0626,3.294932 -0.26969,6.060803 -5.760004,4.575562 l -0.04575,-1.518454 c 4.986384,2.225314 4.669514,-0.535922 4.738964,-3.040668 z"
           style="fill:#00563b;fill-opacity:1;stroke:none;stroke-width:0.10408963px;stroke-linecap:butt;stroke-linejoin:miter;stroke-opacity:1" />
      </g>
    </g>
  </g>
</svg>
